<mxfile host="app.diagrams.net" agent="Mozilla/5.0 (Windows NT 10.0; Win64; x64; rv:134.0) Gecko/20100101 Firefox/134.0" version="28.0.7">
  <diagram name="Seite-1" id="_RVbn4afnnwLAuVGmc7O">
    <mxGraphModel dx="1181" dy="651" grid="1" gridSize="10" guides="1" tooltips="1" connect="1" arrows="1" fold="1" page="1" pageScale="1" pageWidth="827" pageHeight="1169" math="0" shadow="0">
      <root>
        <mxCell id="0" />
        <mxCell id="1" parent="0" />
        <mxCell id="3MaIgDKpik7BlqdbmMJt-2" value="Tool-Using mit MCP" style="rounded=0;whiteSpace=wrap;html=1;verticalAlign=top;fontSize=15;" vertex="1" parent="1">
          <mxGeometry x="80" y="446" width="610" height="234" as="geometry" />
        </mxCell>
        <mxCell id="3MaIgDKpik7BlqdbmMJt-1" value="Klassisches Tool-Using" style="rounded=0;whiteSpace=wrap;html=1;verticalAlign=top;fontSize=15;" vertex="1" parent="1">
          <mxGeometry x="80" y="178.5" width="610" height="241.5" as="geometry" />
        </mxCell>
        <mxCell id="HMchAOa39cQeUir1N5ws-1" value="&lt;div&gt;&lt;br&gt;&lt;/div&gt;&lt;div&gt;&lt;br&gt;&lt;/div&gt;&lt;div&gt;&lt;br&gt;&lt;/div&gt;&lt;div&gt;&lt;br&gt;&lt;/div&gt;&lt;div&gt;&lt;br&gt;&lt;/div&gt;&lt;div&gt;&lt;br&gt;&lt;/div&gt;&lt;div&gt;&lt;br&gt;&lt;/div&gt;&lt;div&gt;&lt;br&gt;&lt;/div&gt;&lt;div&gt;&lt;br&gt;&lt;/div&gt;&lt;div&gt;&lt;br&gt;&lt;/div&gt;&lt;div&gt;&amp;nbsp;&amp;nbsp;&amp;nbsp; KI-System &amp;nbsp; &amp;nbsp; &amp;nbsp; &amp;nbsp; &amp;nbsp; &amp;nbsp; &amp;nbsp; &amp;nbsp; &amp;nbsp; &amp;nbsp; &amp;nbsp; &amp;nbsp; &amp;nbsp; &amp;nbsp; &amp;nbsp; &amp;nbsp; &amp;nbsp; &amp;nbsp; &amp;nbsp;&amp;nbsp;&amp;nbsp;&amp;nbsp;&amp;nbsp;&amp;nbsp;&amp;nbsp;&amp;nbsp;&amp;nbsp;&amp;nbsp;&amp;nbsp;&amp;nbsp;&amp;nbsp;&amp;nbsp;&amp;nbsp;&amp;nbsp;&amp;nbsp;&amp;nbsp;&amp;nbsp;&amp;nbsp;&amp;nbsp;&amp;nbsp;&amp;nbsp;&amp;nbsp;&amp;nbsp;&amp;nbsp;&amp;nbsp;&amp;nbsp;&amp;nbsp;&amp;nbsp;&amp;nbsp;&amp;nbsp;&amp;nbsp;&amp;nbsp;&amp;nbsp;&amp;nbsp;&amp;nbsp;&amp;nbsp;&amp;nbsp;&amp;nbsp; &lt;/div&gt;" style="rounded=1;whiteSpace=wrap;html=1;fillColor=light-dark(#dae8fc, #1d293b);strokeColor=#6c8ebf;" parent="1" vertex="1">
          <mxGeometry x="210" y="220" width="390" height="190" as="geometry" />
        </mxCell>
        <mxCell id="HMchAOa39cQeUir1N5ws-64" value="MCP Server 3 &amp;nbsp; &amp;nbsp; &amp;nbsp; &amp;nbsp;&amp;nbsp; &amp;nbsp;&amp;nbsp;&amp;nbsp;&amp;nbsp;&amp;nbsp;&amp;nbsp;&amp;nbsp;&amp;nbsp;&amp;nbsp;&amp;nbsp;&amp;nbsp;&amp;nbsp;&amp;nbsp;&amp;nbsp;&amp;nbsp;&amp;nbsp;&amp;nbsp;&amp;nbsp;&amp;nbsp;&amp;nbsp;&amp;nbsp;&amp;nbsp;&amp;nbsp;&amp;nbsp;&amp;nbsp;&amp;nbsp;&amp;nbsp;&amp;nbsp;&amp;nbsp; " style="rounded=1;whiteSpace=wrap;html=1;fillColor=#d5e8d4;strokeColor=#82b366;" parent="1" vertex="1">
          <mxGeometry x="360" y="625" width="240" height="40" as="geometry" />
        </mxCell>
        <mxCell id="HMchAOa39cQeUir1N5ws-63" value="MCP Server 2 &amp;nbsp; &amp;nbsp; &amp;nbsp; &amp;nbsp;&amp;nbsp; &amp;nbsp;&amp;nbsp;&amp;nbsp;&amp;nbsp;&amp;nbsp;&amp;nbsp;&amp;nbsp;&amp;nbsp;&amp;nbsp;&amp;nbsp;&amp;nbsp;&amp;nbsp;&amp;nbsp;&amp;nbsp;&amp;nbsp;&amp;nbsp;&amp;nbsp;&amp;nbsp;&amp;nbsp;&amp;nbsp;&amp;nbsp;&amp;nbsp;&amp;nbsp;&amp;nbsp;&amp;nbsp;&amp;nbsp;&amp;nbsp;&amp;nbsp;&amp;nbsp; " style="rounded=1;whiteSpace=wrap;html=1;fillColor=#d5e8d4;strokeColor=#82b366;" parent="1" vertex="1">
          <mxGeometry x="360" y="580" width="240" height="41" as="geometry" />
        </mxCell>
        <mxCell id="HMchAOa39cQeUir1N5ws-62" value="MCP Server 1 &amp;nbsp; &amp;nbsp; &amp;nbsp;&amp;nbsp;&amp;nbsp;&amp;nbsp;&amp;nbsp;&amp;nbsp;&amp;nbsp;&amp;nbsp;&amp;nbsp;&amp;nbsp;&amp;nbsp;&amp;nbsp;&amp;nbsp;&amp;nbsp;&amp;nbsp;&amp;nbsp;&amp;nbsp;&amp;nbsp;&amp;nbsp;&amp;nbsp;&amp;nbsp;&amp;nbsp;&amp;nbsp;&amp;nbsp;&amp;nbsp;&amp;nbsp;&amp;nbsp;&amp;nbsp;&amp;nbsp;&amp;nbsp;&amp;nbsp;&amp;nbsp;&amp;nbsp;&amp;nbsp; " style="rounded=1;whiteSpace=wrap;html=1;fillColor=#d5e8d4;strokeColor=#82b366;" parent="1" vertex="1">
          <mxGeometry x="360" y="488.5" width="240" height="85" as="geometry" />
        </mxCell>
        <mxCell id="HMchAOa39cQeUir1N5ws-42" value="DB" style="shape=cylinder3;whiteSpace=wrap;html=1;boundedLbl=1;backgroundOutline=1;size=15;" parent="1" vertex="1">
          <mxGeometry x="630" y="241" width="40" height="60" as="geometry" />
        </mxCell>
        <mxCell id="HMchAOa39cQeUir1N5ws-17" style="edgeStyle=orthogonalEdgeStyle;rounded=0;orthogonalLoop=1;jettySize=auto;html=1;dashed=1;startArrow=classic;startFill=1;" parent="1" source="HMchAOa39cQeUir1N5ws-2" target="HMchAOa39cQeUir1N5ws-8" edge="1">
          <mxGeometry relative="1" as="geometry" />
        </mxCell>
        <mxCell id="HMchAOa39cQeUir1N5ws-2" value="Benutzer" style="shape=umlActor;verticalLabelPosition=bottom;verticalAlign=top;html=1;outlineConnect=0;" parent="1" vertex="1">
          <mxGeometry x="100" y="270" width="30" height="60" as="geometry" />
        </mxCell>
        <mxCell id="HMchAOa39cQeUir1N5ws-4" value="" style="sketch=0;outlineConnect=0;fontColor=#232F3E;gradientColor=none;fillColor=#232F3D;strokeColor=none;dashed=0;verticalLabelPosition=bottom;verticalAlign=top;align=center;html=1;fontSize=12;fontStyle=0;aspect=fixed;pointerEvents=1;shape=mxgraph.aws4.document;" parent="1" vertex="1">
          <mxGeometry x="635.88" y="362.75" width="28.14" height="38.5" as="geometry" />
        </mxCell>
        <mxCell id="HMchAOa39cQeUir1N5ws-8" value="Chatbot" style="sketch=0;points=[[0,0,0],[0.25,0,0],[0.5,0,0],[0.75,0,0],[1,0,0],[0,1,0],[0.25,1,0],[0.5,1,0],[0.75,1,0],[1,1,0],[0,0.25,0],[0,0.5,0],[0,0.75,0],[1,0.25,0],[1,0.5,0],[1,0.75,0]];points=[[0,0,0],[0.25,0,0],[0.5,0,0],[0.75,0,0],[1,0,0],[0,1,0],[0.25,1,0],[0.5,1,0],[0.75,1,0],[1,1,0],[0,0.25,0],[0,0.5,0],[0,0.75,0],[1,0.25,0],[1,0.5,0],[1,0.75,0]];outlineConnect=0;fontColor=#232F3E;fillColor=#007FFF;strokeColor=#ffffff;dashed=0;verticalLabelPosition=bottom;verticalAlign=top;align=center;html=1;fontSize=12;fontStyle=0;aspect=fixed;shape=mxgraph.aws4.resourceIcon;resIcon=mxgraph.aws4.chatbot;" parent="1" vertex="1">
          <mxGeometry x="180" y="276" width="48" height="48" as="geometry" />
        </mxCell>
        <mxCell id="HMchAOa39cQeUir1N5ws-9" value="Tool1" style="rounded=1;whiteSpace=wrap;html=1;fillColor=#fff2cc;strokeColor=#d6b656;" parent="1" vertex="1">
          <mxGeometry x="465" y="237" width="120" height="30" as="geometry" />
        </mxCell>
        <mxCell id="HMchAOa39cQeUir1N5ws-10" value="Tool3" style="rounded=1;whiteSpace=wrap;html=1;fillColor=#fff2cc;strokeColor=#d6b656;" parent="1" vertex="1">
          <mxGeometry x="465" y="327" width="120" height="30" as="geometry" />
        </mxCell>
        <mxCell id="HMchAOa39cQeUir1N5ws-11" value="&lt;div&gt;Tool2&lt;/div&gt;" style="rounded=1;whiteSpace=wrap;html=1;fillColor=#fff2cc;strokeColor=#d6b656;" parent="1" vertex="1">
          <mxGeometry x="465" y="281" width="120" height="30" as="geometry" />
        </mxCell>
        <mxCell id="HMchAOa39cQeUir1N5ws-16" style="edgeStyle=orthogonalEdgeStyle;rounded=0;orthogonalLoop=1;jettySize=auto;html=1;dashed=1;" parent="1" source="HMchAOa39cQeUir1N5ws-12" target="HMchAOa39cQeUir1N5ws-4" edge="1">
          <mxGeometry relative="1" as="geometry" />
        </mxCell>
        <mxCell id="HMchAOa39cQeUir1N5ws-12" value="&lt;div&gt;Tool4&lt;/div&gt;" style="rounded=1;whiteSpace=wrap;html=1;fillColor=#fff2cc;strokeColor=#d6b656;" parent="1" vertex="1">
          <mxGeometry x="465" y="367" width="120" height="30" as="geometry" />
        </mxCell>
        <mxCell id="HMchAOa39cQeUir1N5ws-45" style="edgeStyle=orthogonalEdgeStyle;rounded=0;orthogonalLoop=1;jettySize=auto;html=1;entryX=0;entryY=0;entryDx=0;entryDy=22.5;entryPerimeter=0;dashed=1;" parent="1" source="HMchAOa39cQeUir1N5ws-9" target="HMchAOa39cQeUir1N5ws-42" edge="1">
          <mxGeometry relative="1" as="geometry" />
        </mxCell>
        <mxCell id="HMchAOa39cQeUir1N5ws-46" style="edgeStyle=orthogonalEdgeStyle;rounded=0;orthogonalLoop=1;jettySize=auto;html=1;entryX=0;entryY=0.689;entryDx=0;entryDy=0;entryPerimeter=0;dashed=1;" parent="1" source="HMchAOa39cQeUir1N5ws-11" target="HMchAOa39cQeUir1N5ws-42" edge="1">
          <mxGeometry relative="1" as="geometry" />
        </mxCell>
        <mxCell id="HMchAOa39cQeUir1N5ws-47" value="KI-Agent" style="rounded=1;whiteSpace=wrap;html=1;fillColor=#ffe6cc;strokeColor=#d79b00;" parent="1" vertex="1">
          <mxGeometry x="240" y="241" width="70" height="130" as="geometry" />
        </mxCell>
        <mxCell id="HMchAOa39cQeUir1N5ws-69" style="edgeStyle=orthogonalEdgeStyle;rounded=0;orthogonalLoop=1;jettySize=auto;html=1;entryX=0;entryY=0.5;entryDx=0;entryDy=0;startArrow=classicThin;startFill=1;exitX=1.003;exitY=0.632;exitDx=0;exitDy=0;exitPerimeter=0;" parent="1" source="HMchAOa39cQeUir1N5ws-48" target="HMchAOa39cQeUir1N5ws-63" edge="1">
          <mxGeometry relative="1" as="geometry" />
        </mxCell>
        <mxCell id="HMchAOa39cQeUir1N5ws-48" value="&lt;div&gt;&lt;br&gt;&lt;/div&gt;&lt;div&gt;&lt;br&gt;&lt;/div&gt;&lt;div&gt;&lt;br&gt;&lt;/div&gt;&lt;div&gt;&lt;br&gt;&lt;/div&gt;&lt;div&gt;&lt;br&gt;&lt;/div&gt;&lt;div&gt;&lt;br&gt;&lt;/div&gt;&lt;div&gt;&lt;br&gt;&lt;/div&gt;&lt;div&gt;&lt;br&gt;&lt;/div&gt;&lt;div&gt;&lt;br&gt;&lt;/div&gt;&lt;div&gt;&lt;br&gt;&lt;/div&gt;&lt;div&gt;MCP-Client&lt;br&gt;&lt;/div&gt;" style="rounded=1;whiteSpace=wrap;html=1;fillColor=light-dark(#dae8fc, #1d293b);strokeColor=#6c8ebf;" parent="1" vertex="1">
          <mxGeometry x="210" y="480" width="110" height="190" as="geometry" />
        </mxCell>
        <mxCell id="HMchAOa39cQeUir1N5ws-49" value="DB" style="shape=cylinder3;whiteSpace=wrap;html=1;boundedLbl=1;backgroundOutline=1;size=15;" parent="1" vertex="1">
          <mxGeometry x="630" y="501" width="40" height="60" as="geometry" />
        </mxCell>
        <mxCell id="HMchAOa39cQeUir1N5ws-50" style="edgeStyle=orthogonalEdgeStyle;rounded=0;orthogonalLoop=1;jettySize=auto;html=1;dashed=1;startArrow=classic;startFill=1;" parent="1" source="HMchAOa39cQeUir1N5ws-51" target="HMchAOa39cQeUir1N5ws-53" edge="1">
          <mxGeometry relative="1" as="geometry" />
        </mxCell>
        <mxCell id="HMchAOa39cQeUir1N5ws-51" value="Benutzer" style="shape=umlActor;verticalLabelPosition=bottom;verticalAlign=top;html=1;outlineConnect=0;" parent="1" vertex="1">
          <mxGeometry x="100" y="530" width="30" height="60" as="geometry" />
        </mxCell>
        <mxCell id="HMchAOa39cQeUir1N5ws-52" value="" style="sketch=0;outlineConnect=0;fontColor=#232F3E;gradientColor=none;fillColor=#232F3D;strokeColor=none;dashed=0;verticalLabelPosition=bottom;verticalAlign=top;align=center;html=1;fontSize=12;fontStyle=0;aspect=fixed;pointerEvents=1;shape=mxgraph.aws4.document;" parent="1" vertex="1">
          <mxGeometry x="635.88" y="622.75" width="28.14" height="38.5" as="geometry" />
        </mxCell>
        <mxCell id="HMchAOa39cQeUir1N5ws-53" value="Chatbot" style="sketch=0;points=[[0,0,0],[0.25,0,0],[0.5,0,0],[0.75,0,0],[1,0,0],[0,1,0],[0.25,1,0],[0.5,1,0],[0.75,1,0],[1,1,0],[0,0.25,0],[0,0.5,0],[0,0.75,0],[1,0.25,0],[1,0.5,0],[1,0.75,0]];points=[[0,0,0],[0.25,0,0],[0.5,0,0],[0.75,0,0],[1,0,0],[0,1,0],[0.25,1,0],[0.5,1,0],[0.75,1,0],[1,1,0],[0,0.25,0],[0,0.5,0],[0,0.75,0],[1,0.25,0],[1,0.5,0],[1,0.75,0]];outlineConnect=0;fontColor=#232F3E;fillColor=#007FFF;strokeColor=#ffffff;dashed=0;verticalLabelPosition=bottom;verticalAlign=top;align=center;html=1;fontSize=12;fontStyle=0;aspect=fixed;shape=mxgraph.aws4.resourceIcon;resIcon=mxgraph.aws4.chatbot;" parent="1" vertex="1">
          <mxGeometry x="180" y="536" width="48" height="48" as="geometry" />
        </mxCell>
        <mxCell id="HMchAOa39cQeUir1N5ws-54" value="Tool1" style="rounded=1;whiteSpace=wrap;html=1;fillColor=#fff2cc;strokeColor=#d6b656;" parent="1" vertex="1">
          <mxGeometry x="465" y="497" width="120" height="30" as="geometry" />
        </mxCell>
        <mxCell id="HMchAOa39cQeUir1N5ws-55" value="Tool3" style="rounded=1;whiteSpace=wrap;html=1;fillColor=#fff2cc;strokeColor=#d6b656;" parent="1" vertex="1">
          <mxGeometry x="465" y="586" width="120" height="30" as="geometry" />
        </mxCell>
        <mxCell id="HMchAOa39cQeUir1N5ws-56" value="&lt;div&gt;Tool2&lt;/div&gt;" style="rounded=1;whiteSpace=wrap;html=1;fillColor=#fff2cc;strokeColor=#d6b656;" parent="1" vertex="1">
          <mxGeometry x="465" y="541" width="120" height="30" as="geometry" />
        </mxCell>
        <mxCell id="HMchAOa39cQeUir1N5ws-57" style="edgeStyle=orthogonalEdgeStyle;rounded=0;orthogonalLoop=1;jettySize=auto;html=1;dashed=1;" parent="1" source="HMchAOa39cQeUir1N5ws-58" target="HMchAOa39cQeUir1N5ws-52" edge="1">
          <mxGeometry relative="1" as="geometry" />
        </mxCell>
        <mxCell id="HMchAOa39cQeUir1N5ws-58" value="&lt;div&gt;Tool4&lt;/div&gt;" style="rounded=1;whiteSpace=wrap;html=1;fillColor=#fff2cc;strokeColor=#d6b656;" parent="1" vertex="1">
          <mxGeometry x="465" y="627" width="120" height="30" as="geometry" />
        </mxCell>
        <mxCell id="HMchAOa39cQeUir1N5ws-59" style="edgeStyle=orthogonalEdgeStyle;rounded=0;orthogonalLoop=1;jettySize=auto;html=1;entryX=0;entryY=0;entryDx=0;entryDy=22.5;entryPerimeter=0;dashed=1;" parent="1" source="HMchAOa39cQeUir1N5ws-54" target="HMchAOa39cQeUir1N5ws-49" edge="1">
          <mxGeometry relative="1" as="geometry" />
        </mxCell>
        <mxCell id="HMchAOa39cQeUir1N5ws-60" style="edgeStyle=orthogonalEdgeStyle;rounded=0;orthogonalLoop=1;jettySize=auto;html=1;entryX=-0.004;entryY=0.685;entryDx=0;entryDy=0;entryPerimeter=0;dashed=1;" parent="1" source="HMchAOa39cQeUir1N5ws-56" target="HMchAOa39cQeUir1N5ws-49" edge="1">
          <mxGeometry relative="1" as="geometry" />
        </mxCell>
        <mxCell id="HMchAOa39cQeUir1N5ws-61" value="KI-Agent" style="rounded=1;whiteSpace=wrap;html=1;fillColor=#ffe6cc;strokeColor=#d79b00;" parent="1" vertex="1">
          <mxGeometry x="240" y="501" width="70" height="130" as="geometry" />
        </mxCell>
        <mxCell id="3MaIgDKpik7BlqdbmMJt-4" style="edgeStyle=orthogonalEdgeStyle;rounded=0;orthogonalLoop=1;jettySize=auto;html=1;entryX=0.989;entryY=0.265;entryDx=0;entryDy=0;entryPerimeter=0;startArrow=classic;startFill=1;" edge="1" parent="1" source="HMchAOa39cQeUir1N5ws-62" target="HMchAOa39cQeUir1N5ws-48">
          <mxGeometry relative="1" as="geometry" />
        </mxCell>
        <mxCell id="3MaIgDKpik7BlqdbmMJt-5" style="edgeStyle=orthogonalEdgeStyle;rounded=0;orthogonalLoop=1;jettySize=auto;html=1;entryX=0.979;entryY=0.868;entryDx=0;entryDy=0;entryPerimeter=0;startArrow=classic;startFill=1;" edge="1" parent="1" source="HMchAOa39cQeUir1N5ws-64" target="HMchAOa39cQeUir1N5ws-48">
          <mxGeometry relative="1" as="geometry" />
        </mxCell>
      </root>
    </mxGraphModel>
  </diagram>
</mxfile>
